<svg width="1920" height="400" viewBox="0 0 1920 400" fill="none" xmlns="http://www.w3.org/2000/svg">
<g clip-path="url(#clip0_615_45)">
<path d="M307.04 0.22998C307.73 0.19998 308.35 0.13998 308.96 0.13998C355.22 0.14998 401.48 0.0699797 447.74 0.20998C465.15 0.25998 482.34 2.30998 498.67 8.79998C527.78 20.37 545.58 41.45 550.29 72.59C553.75 95.48 550.87 117.59 538.8 137.9C533.25 147.23 525.95 154.93 516.96 161.03C516.46 161.37 515.98 161.74 515.29 162.25C516.52 162.86 517.57 163.37 518.61 163.89C539.21 174.17 552.91 190.44 559.77 212.27C566.36 233.23 566.64 254.55 560.83 275.7C553.89 300.99 537.36 318.03 513.55 328.29C501.4 333.53 488.6 336.29 475.48 337.63C475.01 337.68 474.53 337.64 473.8 337.64C473.8 336.77 473.8 335.96 473.8 335.15C473.8 314.12 473.75 293.08 473.86 272.05C473.87 269.56 473.33 267.91 470.96 267.01C470.46 266.82 470.03 266.42 469.44 266.02C469.89 265.74 470.21 265.49 470.57 265.32C480.02 260.86 485.13 253.2 486.7 243.08C487.83 235.75 487.62 228.44 485.15 221.35C481.4 210.59 473.23 204.92 462.56 202.62C457.75 201.58 452.75 201.01 447.82 200.97C426.72 200.79 405.61 200.89 384.51 200.89C384.03 200.89 383.55 200.93 382.76 200.97C382.76 205.14 382.76 209.26 382.76 213.81C381.71 213.23 381.05 212.89 380.41 212.51C364.45 202.9 348.47 193.3 332.55 183.63C331.07 182.73 330.03 182.82 328.62 183.68C321.55 188.03 314.42 192.27 307.04 196.72C307.04 131.14 307.04 65.81 307.04 0.22998ZM382.8 134.6C383.38 134.63 383.73 134.67 384.07 134.67C402.09 134.66 420.11 134.76 438.13 134.57C442.49 134.52 446.92 133.88 451.17 132.86C462.09 130.26 469.83 123.96 472.8 112.74C474.27 107.21 474.5 101.57 473.77 95.9C472.32 84.53 466.52 76.5 455.6 72.43C449.22 70.05 442.58 69.33 435.85 69.31C418.95 69.25 402.04 69.29 385.14 69.29C384.39 69.29 383.65 69.29 382.79 69.29C382.8 91.19 382.8 112.81 382.8 134.6Z" fill="#0D2668"/>
<path d="M162.9 181.86C162.9 193.37 162.9 204.74 162.9 216.54C163.83 216.02 164.47 215.7 165.09 215.33C178.67 207.16 192.25 199.01 205.79 190.77C207.23 189.9 208.23 189.89 209.67 190.76C228.83 202.38 248.04 213.91 267.2 225.52C268.64 226.39 269.68 226.43 271.14 225.54C290.36 213.9 309.64 202.34 328.86 190.69C330.18 189.89 331.06 189.88 332.38 190.68C353.76 203.62 375.16 216.52 396.6 229.36C397.85 230.11 398.28 230.89 398.27 232.31C398.21 240.28 398.24 248.24 398.24 256.21C398.24 256.81 398.24 257.42 398.24 258.37C397.01 257.65 396.06 257.12 395.13 256.55C374.38 244.05 353.62 231.57 332.91 219.02C331.29 218.04 330.13 217.91 328.44 218.95C317.26 225.81 305.99 232.55 294.76 239.32C294.12 239.7 293.51 240.12 292.58 240.71C293.46 241.26 294.08 241.66 294.71 242.04C310.79 251.73 326.87 261.43 342.98 271.07C344.36 271.89 344.86 272.77 344.86 274.37C344.8 296.45 344.82 318.54 344.82 340.62C344.82 341.51 344.82 342.4 344.82 342.89C364.82 346.58 384.48 350.21 404.27 353.86C404.27 309.7 404.27 265.28 404.27 220.66C411.53 220.66 418.61 220.66 426.02 220.66C426.02 221.49 426.02 222.37 426.02 223.25C426.02 268.05 426.03 312.84 425.97 357.64C425.97 359.66 426.5 360.59 428.51 361.06C432.08 361.9 435.59 363.04 439.37 364.12C439.37 363.07 439.37 362.32 439.37 361.56C439.37 336.19 439.35 310.82 439.41 285.45C439.41 283.77 439.02 282.58 437.42 282.02C432.82 280.41 431.66 277.19 432 272.49C432.45 266.16 432.11 259.78 432.11 253.42C432.11 252.69 432.11 251.95 432.11 250.9C433.14 251.46 433.81 251.8 434.45 252.19C444.85 258.45 455.24 264.76 465.68 270.96C467.19 271.85 467.76 272.79 467.76 274.57C467.7 306.93 467.73 339.28 467.67 371.64C467.67 373.58 468.19 374.58 470.05 375.33C486.7 382.05 502.92 389.67 518.51 398.6C519.17 398.98 519.82 399.37 520.42 400C439.84 369.11 356.08 355.83 270.18 355.86C184.32 355.89 100.59 369.17 19.9902 399.82C20.3202 399.6 20.6402 399.36 20.9902 399.17C28.2502 395.27 35.3902 391.14 42.8002 387.56C51.1102 383.54 59.6302 379.93 68.1402 376.33C70.1702 375.47 70.7102 374.41 70.7002 372.31C70.6302 339.81 70.6702 307.32 70.6102 274.82C70.6102 272.92 71.1702 271.85 72.8202 270.86C92.7702 258.93 112.66 246.9 132.59 234.95C134.01 234.1 134.58 233.19 134.57 231.49C134.5 215.84 134.53 200.18 134.53 184.53C134.53 183.7 134.53 182.86 134.53 181.85C143.97 181.86 153.29 181.86 162.9 181.86ZM316.34 340.48C316.4 339.73 316.47 339.18 316.47 338.64C316.48 320.76 316.45 302.87 316.52 284.99C316.53 283.44 315.82 282.78 314.67 282.09C279.57 260.97 244.49 239.84 209.42 218.67C208.17 217.91 207.3 217.91 206.05 218.67C192.27 227.03 178.46 235.35 164.63 243.62C163.32 244.4 162.88 245.27 162.88 246.78C162.92 279.89 162.91 313.01 162.91 346.13C162.91 346.87 162.91 347.62 162.91 348.6C213.84 339.14 264.81 336.65 316.34 340.48ZM99.0202 364.62C99.6502 364.51 99.9902 364.48 100.31 364.39C111.15 361.31 121.98 358.19 132.84 355.17C134.33 354.75 134.54 353.97 134.54 352.63C134.51 323.09 134.52 293.54 134.51 264C134.51 263.42 134.42 262.84 134.35 262.07C133.58 262.49 133.02 262.76 132.49 263.08C121.98 269.41 111.49 275.78 100.94 282.05C99.4902 282.91 98.9802 283.85 98.9802 285.53C99.0302 311.09 99.0202 336.66 99.0202 362.22C99.0202 362.97 99.0202 363.71 99.0202 364.62Z" fill="#0D2668"/>
<path d="M0.0101084 0.23999C25.6301 0.23999 50.9801 0.23999 76.6601 0.23999C76.6601 1.13999 76.6601 2.00999 76.6601 2.87999C76.6601 64.66 76.6101 126.43 76.7101 188.21C76.7401 203.56 78.3001 218.75 83.4801 233.36C85.6601 239.52 88.6201 245.28 92.7101 250.41C92.9201 250.67 93.0801 250.98 93.3601 251.39C87.1901 255.11 81.1101 258.78 75.0201 262.45C72.2101 264.14 69.4401 265.91 66.5701 267.49C65.0501 268.33 64.4901 269.33 64.4901 271.11C64.5601 289.98 64.5301 308.85 64.5301 327.71C64.5301 328.55 64.5301 329.38 64.5301 330.68C63.5201 330.12 62.7601 329.73 62.0301 329.29C42.5801 317.61 28.5001 301.07 18.4501 280.93C10.3001 264.6 5.61011 247.2 2.90011 229.23C0.670109 214.28 -0.00989163 199.22 0.000108371 184.11C0.0301084 123.8 0.0101084 63.49 0.0101084 3.18999C0.0101084 2.27999 0.0101084 1.37999 0.0101084 0.23999Z" fill="#0D2668"/>
<path d="M179.27 0.26001C204.68 0.26001 229.67 0.26001 254.63 0.26001C255.52 5.71001 254.75 205.68 253.8 210.25C248.38 206.98 243.01 203.75 237.64 200.52C228.25 194.87 218.85 189.24 209.5 183.53C208.18 182.72 207.25 182.74 205.94 183.54C197.73 188.57 189.46 193.51 181.2 198.48C180.61 198.83 180 199.16 179.27 199.58C179.27 133.1 179.27 66.78 179.27 0.26001Z" fill="#0D2668"/>
<path d="M1920 55.14H942.34V224.88H1920V55.14Z" fill="#0D2668"/>
<path d="M686.59 186.24C676.34 176.17 671.22 161.89 671.22 143.41V74.45H706.41V142.34C706.41 162.24 714.29 172.2 730.05 172.2C745.69 172.2 753.51 162.25 753.51 142.34V74.45H788.17V143.41C788.17 161.89 783.04 176.17 772.8 186.24C762.55 196.31 748.19 201.35 729.7 201.35C711.2 201.35 696.83 196.31 686.59 186.24Z" fill="#0D2668"/>
<path d="M876.84 154.25V198.86H841.65V153.72L794.2 74.45H831.34L860.84 123.86L890.34 74.45H924.46L876.84 154.25Z" fill="#0D2668"/>
<path d="M1097.4 145.63C1101.43 150.9 1103.44 157.27 1103.44 164.74C1103.44 175.64 1099.06 184.05 1090.29 189.98C1081.52 195.91 1068.84 198.87 1052.26 198.87H985.08V74.45H1048.71C1064.59 74.45 1076.67 77.38 1084.97 83.25C1093.26 89.11 1097.41 97.02 1097.41 106.98C1097.41 112.91 1095.96 118.21 1093.06 122.89C1090.15 127.57 1086.04 131.27 1080.71 134C1087.8 136.48 1093.37 140.36 1097.4 145.63ZM1019.91 99.87V123.86H1044.08C1055.93 123.86 1061.85 119.83 1061.85 111.77C1061.85 103.83 1055.93 99.86 1044.08 99.86H1019.91V99.87ZM1067.89 160.83C1067.89 152.42 1061.73 148.21 1049.41 148.21H1019.91V173.45H1049.41C1061.73 173.45 1067.89 169.24 1067.89 160.83Z" fill="white"/>
<path d="M1149.02 193C1138.54 187.43 1130.3 179.73 1124.32 169.9C1118.34 160.07 1115.35 148.99 1115.35 136.67C1115.35 124.35 1118.34 113.27 1124.32 103.44C1130.3 93.61 1138.54 85.91 1149.02 80.34C1159.51 74.77 1171.33 71.99 1184.48 71.99C1197.63 71.99 1209.45 74.78 1219.94 80.34C1230.43 85.91 1238.66 93.61 1244.64 103.44C1250.62 113.28 1253.61 124.35 1253.61 136.67C1253.61 148.99 1250.62 160.07 1244.64 169.9C1238.66 179.74 1230.42 187.44 1219.94 193C1209.45 198.57 1197.64 201.35 1184.48 201.35C1171.33 201.35 1159.51 198.57 1149.02 193ZM1201.54 167.76C1206.63 164.8 1210.66 160.62 1213.63 155.23C1216.59 149.84 1218.07 143.65 1218.07 136.66C1218.07 129.67 1216.59 123.48 1213.63 118.09C1210.67 112.7 1206.64 108.52 1201.54 105.56C1196.44 102.6 1190.76 101.12 1184.48 101.12C1178.2 101.12 1172.51 102.6 1167.42 105.56C1162.32 108.52 1158.3 112.7 1155.34 118.09C1152.38 123.48 1150.9 129.67 1150.9 136.66C1150.9 143.65 1152.38 149.84 1155.34 155.23C1158.3 160.62 1162.33 164.8 1167.42 167.76C1172.51 170.72 1178.2 172.2 1184.48 172.2C1190.76 172.2 1196.45 170.72 1201.54 167.76Z" fill="white"/>
<path d="M1376.24 170.96V198.86H1264.81V176.82L1327.55 102.35H1266.41V74.45H1373.58V96.49L1310.84 170.96H1376.24Z" fill="white"/>
<path d="M1417.92 193C1407.44 187.43 1399.2 179.73 1393.22 169.9C1387.24 160.07 1384.25 148.99 1384.25 136.67C1384.25 124.35 1387.24 113.27 1393.22 103.44C1399.2 93.61 1407.44 85.91 1417.92 80.34C1428.41 74.77 1440.23 71.99 1453.38 71.99C1466.53 71.99 1478.35 74.78 1488.84 80.34C1499.33 85.91 1507.56 93.61 1513.54 103.44C1519.52 113.28 1522.51 124.35 1522.51 136.67C1522.51 148.99 1519.52 160.07 1513.54 169.9C1507.56 179.74 1499.32 187.44 1488.84 193C1478.35 198.57 1466.54 201.35 1453.38 201.35C1440.22 201.35 1428.4 198.57 1417.92 193ZM1470.44 167.76C1475.53 164.8 1479.56 160.62 1482.53 155.23C1485.49 149.84 1486.97 143.65 1486.97 136.66C1486.97 129.67 1485.49 123.48 1482.53 118.09C1479.57 112.7 1475.54 108.52 1470.44 105.56C1465.34 102.6 1459.66 101.12 1453.38 101.12C1447.1 101.12 1441.41 102.6 1436.32 105.56C1431.22 108.52 1427.2 112.7 1424.24 118.09C1421.28 123.48 1419.8 129.67 1419.8 136.66C1419.8 143.65 1421.28 149.84 1424.24 155.23C1427.2 160.62 1431.23 164.8 1436.32 167.76C1441.41 170.72 1447.1 172.2 1453.38 172.2C1459.65 172.2 1465.34 170.72 1470.44 167.76Z" fill="white"/>
<path d="M1595.38 165.8H1576.19V198.86H1541V74.45H1597.87C1609.13 74.45 1618.9 76.32 1627.19 80.05C1635.48 83.78 1641.88 89.11 1646.38 96.05C1650.88 102.98 1653.13 111.13 1653.13 120.49C1653.13 129.5 1651.03 137.35 1646.82 144.04C1642.61 150.73 1636.6 155.98 1628.78 159.77L1655.62 198.87H1617.94L1595.38 165.8ZM1612.08 106.98C1608.41 103.78 1602.96 102.18 1595.73 102.18H1576.18V138.61H1595.73C1602.96 138.61 1608.41 137.04 1612.08 133.9C1615.75 130.76 1617.59 126.29 1617.59 120.48C1617.59 114.68 1615.75 110.17 1612.08 106.98Z" fill="white"/>
<path d="M1672.51 74.45H1707.7V198.86H1672.51V74.45Z" fill="white"/>
<path d="M1845.08 198.86L1844.72 132.92L1812.73 186.59H1797.09L1765.28 134.69V198.85H1732.76V74.45H1761.73L1805.45 146.25L1848.1 74.45H1877.07L1877.43 198.86H1845.08Z" fill="white"/>
<path d="M719.98 306.06C721.85 308.51 722.78 311.54 722.78 315.17C722.78 320.17 720.85 324.03 717.01 326.76C713.16 329.48 707.55 330.84 700.19 330.84H671.49V273.12H698.54C705.36 273.12 710.61 274.45 714.29 277.12C717.97 279.79 719.82 283.46 719.82 288.13C719.82 290.99 719.16 293.52 717.84 295.72C716.52 297.92 714.71 299.62 712.4 300.83C715.58 301.87 718.11 303.62 719.98 306.06ZM682.21 281.53V297.44H697.38C701.12 297.44 703.99 296.77 706 295.42C708.01 294.07 709.01 292.11 709.01 289.52C709.01 286.88 708.01 284.89 706 283.54C703.99 282.19 701.12 281.52 697.38 281.52H682.21V281.53ZM711.98 314.1C711.98 308.55 707.83 305.77 699.53 305.77H682.21V322.43H699.53C707.83 322.43 711.98 319.65 711.98 314.1Z" fill="#0D2668"/>
<path d="M734.24 273.12H744.96V330.84H734.24V273.12Z" fill="#0D2668"/>
<path d="M805.4 321.77V330.84H756.17V323.67L790.14 282.19H756.74V273.12H804.32V280.29L770.35 321.77H805.4Z" fill="#0D2668"/>
<path d="M886.46 306.06C888.33 308.51 889.26 311.54 889.26 315.17C889.26 320.17 887.34 324.03 883.49 326.76C879.64 329.48 874.03 330.84 866.67 330.84H837.97V273.12H865.02C871.84 273.12 877.09 274.45 880.77 277.12C884.45 279.79 886.3 283.46 886.3 288.13C886.3 290.99 885.64 293.52 884.32 295.72C883 297.92 881.19 299.62 878.88 300.83C882.06 301.87 884.59 303.62 886.46 306.06ZM848.69 281.53V297.44H863.86C867.6 297.44 870.47 296.77 872.48 295.42C874.49 294.07 875.49 292.11 875.49 289.52C875.49 286.88 874.49 284.89 872.48 283.54C870.47 282.19 867.6 281.52 863.86 281.52H848.69V281.53ZM878.46 314.1C878.46 308.55 874.31 305.77 866.01 305.77H848.69V322.43H866.01C874.31 322.43 878.46 319.65 878.46 314.1Z" fill="#0D2668"/>
<path d="M900.73 273.12H911.451V330.84H900.73V273.12Z" fill="#0D2668"/>
<path d="M927.03 273.12H937.75V321.77H967.93V330.84H927.03V273.12Z" fill="#0D2668"/>
<path d="M1014.27 317.48H985.41L979.72 330.84H968.67L994.65 273.12H1005.2L1031.26 330.84H1020.05L1014.27 317.48ZM1010.73 309.07L999.84 283.84L989.04 309.07H1010.73Z" fill="#0D2668"/>
<path d="M1089.89 273.12V330.84H1081.07L1049.24 291.75V330.84H1038.6V273.12H1047.42L1079.25 312.21V273.12H1089.89Z" fill="#0D2668"/>
<path d="M1133.14 329.77C1128.99 328.51 1125.7 326.83 1123.29 324.74L1127 316.41C1129.36 318.28 1132.26 319.8 1135.7 320.99C1139.14 322.17 1142.59 322.76 1146.05 322.76C1150.34 322.76 1153.54 322.07 1155.66 320.7C1157.78 319.33 1158.84 317.51 1158.84 315.26C1158.84 313.61 1158.25 312.25 1157.07 311.18C1155.89 310.11 1154.39 309.27 1152.58 308.67C1150.77 308.07 1148.29 307.38 1145.16 306.61C1140.76 305.57 1137.2 304.52 1134.48 303.48C1131.76 302.44 1129.42 300.8 1127.47 298.57C1125.52 296.34 1124.54 293.33 1124.54 289.54C1124.54 286.35 1125.41 283.45 1127.14 280.84C1128.87 278.23 1131.48 276.15 1134.97 274.61C1138.46 273.07 1142.73 272.3 1147.79 272.3C1151.31 272.3 1154.77 272.74 1158.18 273.62C1161.59 274.5 1164.53 275.76 1167 277.41L1163.62 285.74C1161.09 284.26 1158.45 283.13 1155.7 282.36C1152.95 281.59 1150.28 281.21 1147.7 281.21C1143.47 281.21 1140.32 281.93 1138.26 283.35C1136.2 284.78 1135.17 286.68 1135.17 289.04C1135.17 290.69 1135.76 292.04 1136.94 293.08C1138.12 294.12 1139.62 294.95 1141.43 295.55C1143.25 296.16 1145.72 296.84 1148.85 297.61C1153.14 298.6 1156.66 299.63 1159.41 300.7C1162.16 301.77 1164.51 303.41 1166.46 305.61C1168.41 307.81 1169.39 310.78 1169.39 314.52C1169.39 317.71 1168.52 320.6 1166.79 323.18C1165.06 325.76 1162.43 327.83 1158.91 329.36C1155.39 330.89 1151.1 331.67 1146.05 331.67C1141.59 331.67 1137.29 331.03 1133.14 329.77Z" fill="#0D2668"/>
<path d="M1191.07 327.83C1186.34 325.27 1182.63 321.73 1179.94 317.19C1177.25 312.65 1175.9 307.58 1175.9 301.98C1175.9 296.37 1177.25 291.3 1179.94 286.77C1182.63 282.23 1186.34 278.69 1191.07 276.13C1195.8 273.57 1201.1 272.3 1206.98 272.3C1212.86 272.3 1218.17 273.58 1222.89 276.13C1227.62 278.69 1231.33 282.22 1234.02 286.73C1236.71 291.24 1238.06 296.32 1238.06 301.99C1238.06 307.65 1236.71 312.74 1234.02 317.25C1231.33 321.76 1227.61 325.29 1222.89 327.85C1218.16 330.41 1212.86 331.69 1206.98 331.69C1201.1 331.67 1195.79 330.39 1191.07 327.83ZM1217.37 319.67C1220.45 317.94 1222.87 315.52 1224.63 312.41C1226.39 309.31 1227.27 305.83 1227.27 301.98C1227.27 298.13 1226.39 294.66 1224.63 291.55C1222.87 288.44 1220.45 286.03 1217.37 284.29C1214.29 282.56 1210.83 281.69 1206.98 281.69C1203.13 281.69 1199.67 282.56 1196.59 284.29C1193.51 286.02 1191.09 288.44 1189.33 291.55C1187.57 294.66 1186.69 298.13 1186.69 301.98C1186.69 305.83 1187.57 309.31 1189.33 312.41C1191.09 315.52 1193.51 317.94 1196.59 319.67C1199.67 321.4 1203.13 322.27 1206.98 322.27C1210.83 322.27 1214.29 321.4 1217.37 319.67Z" fill="#0D2668"/>
<path d="M1260.34 282.19H1241.21V273.12H1290.19V282.19H1271.06V330.84H1260.34V282.19Z" fill="#0D2668"/>
<path d="M1298.27 273.12H1308.99V330.84H1298.27V273.12Z" fill="#0D2668"/>
<path d="M1373.06 306.06C1374.93 308.51 1375.86 311.54 1375.86 315.17C1375.86 320.17 1373.93 324.03 1370.09 326.76C1366.24 329.48 1360.63 330.84 1353.27 330.84H1324.57V273.12H1351.62C1358.44 273.12 1363.69 274.45 1367.37 277.12C1371.05 279.79 1372.9 283.46 1372.9 288.13C1372.9 290.99 1372.24 293.52 1370.92 295.72C1369.6 297.92 1367.79 299.62 1365.48 300.83C1368.66 301.87 1371.19 303.62 1373.06 306.06ZM1335.29 281.53V297.44H1350.46C1354.2 297.44 1357.07 296.77 1359.08 295.42C1361.09 294.07 1362.09 292.11 1362.09 289.52C1362.09 286.88 1361.09 284.89 1359.08 283.54C1357.07 282.19 1354.2 281.52 1350.46 281.52H1335.29V281.53ZM1365.06 314.1C1365.06 308.55 1360.91 305.77 1352.61 305.77H1335.29V322.43H1352.61C1360.91 322.43 1365.06 319.65 1365.06 314.1Z" fill="#0D2668"/>
<path d="M1421.13 327.83C1416.4 325.27 1412.69 321.73 1410 317.19C1407.31 312.65 1405.96 307.58 1405.96 301.98C1405.96 296.37 1407.31 291.3 1410 286.77C1412.69 282.23 1416.4 278.69 1421.13 276.13C1425.86 273.57 1431.16 272.3 1437.04 272.3C1442.92 272.3 1448.23 273.58 1452.95 276.13C1457.68 278.69 1461.39 282.22 1464.08 286.73C1466.77 291.24 1468.12 296.32 1468.12 301.99C1468.12 307.65 1466.77 312.74 1464.08 317.25C1461.39 321.76 1457.67 325.29 1452.95 327.85C1448.22 330.41 1442.92 331.69 1437.04 331.69C1431.16 331.67 1425.86 330.39 1421.13 327.83ZM1447.44 319.67C1450.52 317.94 1452.94 315.52 1454.7 312.41C1456.46 309.31 1457.34 305.83 1457.34 301.98C1457.34 298.13 1456.46 294.66 1454.7 291.55C1452.94 288.44 1450.52 286.03 1447.44 284.29C1444.36 282.56 1440.9 281.69 1437.05 281.69C1433.2 281.69 1429.74 282.56 1426.66 284.29C1423.58 286.02 1421.16 288.44 1419.4 291.55C1417.64 294.66 1416.76 298.13 1416.76 301.98C1416.76 305.83 1417.64 309.31 1419.4 312.41C1421.16 315.52 1423.58 317.94 1426.66 319.67C1429.74 321.4 1433.2 322.27 1437.05 322.27C1440.89 322.27 1444.36 321.4 1447.44 319.67Z" fill="#0D2668"/>
<path d="M1479.51 273.12H1490.23V321.77H1520.41V330.84H1479.51V273.12Z" fill="#0D2668"/>
<path d="M1528.91 273.12H1539.63V330.84H1528.91V273.12Z" fill="#0D2668"/>
<path d="M1606.5 273.12V330.84H1597.68L1565.85 291.75V330.84H1555.21V273.12H1564.03L1595.86 312.21V273.12H1606.5Z" fill="#0D2668"/>
<path d="M1661.42 301.32H1671.56V324.33C1668.59 326.69 1665.13 328.51 1661.17 329.77C1657.21 331.03 1653.14 331.67 1648.97 331.67C1643.09 331.67 1637.78 330.39 1633.06 327.83C1628.33 325.27 1624.62 321.74 1621.93 317.23C1619.24 312.72 1617.89 307.64 1617.89 301.97C1617.89 296.31 1619.24 291.22 1621.93 286.71C1624.62 282.2 1628.35 278.67 1633.1 276.11C1637.85 273.55 1643.2 272.28 1649.14 272.28C1653.98 272.28 1658.38 273.08 1662.33 274.67C1666.29 276.27 1669.61 278.6 1672.31 281.68L1665.55 288.28C1661.15 283.88 1655.85 281.68 1649.63 281.68C1645.56 281.68 1641.95 282.53 1638.79 284.24C1635.63 285.94 1633.16 288.34 1631.37 291.41C1629.58 294.49 1628.69 298.01 1628.69 301.96C1628.69 305.81 1629.58 309.27 1631.37 312.35C1633.16 315.43 1635.63 317.85 1638.79 319.61C1641.95 321.37 1645.54 322.25 1649.55 322.25C1654.06 322.25 1658.01 321.26 1661.42 319.28V301.32Z" fill="#0D2668"/>
<path d="M1684.67 329.56C1683.41 328.32 1682.77 326.8 1682.77 324.98C1682.77 323.16 1683.4 321.65 1684.67 320.44C1685.93 319.23 1687.53 318.62 1689.45 318.62C1691.32 318.62 1692.87 319.23 1694.11 320.44C1695.35 321.65 1695.97 323.16 1695.97 324.98C1695.97 326.8 1695.35 328.32 1694.11 329.56C1692.87 330.8 1691.32 331.42 1689.45 331.42C1687.53 331.42 1685.94 330.8 1684.67 329.56ZM1683.36 273.12H1695.56L1693.5 311.71H1685.34L1683.36 273.12Z" fill="#0D2668"/>
</g>
<defs>
<clipPath id="clip0_615_45">
<rect width="1920" height="400" fill="white"/>
</clipPath>
</defs>
</svg>
