<svg width="1920" height="400" viewBox="0 0 1920 400" fill="none" xmlns="http://www.w3.org/2000/svg">
<g clip-path="url(#clip0_620_2)">
<path d="M307.04 0.0999927C307.73 0.0699927 308.35 0.00999268 308.96 0.00999268C355.22 0.00999268 401.48 -0.0600073 447.74 0.0799927C465.15 0.129993 482.34 2.17999 498.67 8.66999C527.78 20.24 545.58 41.32 550.29 72.46C553.75 95.35 550.87 117.46 538.8 137.77C533.25 147.1 525.95 154.8 516.96 160.9C516.46 161.24 515.98 161.61 515.29 162.12C516.52 162.73 517.57 163.24 518.61 163.76C539.21 174.04 552.91 190.31 559.77 212.14C566.36 233.1 566.64 254.42 560.83 275.57C553.89 300.86 537.36 317.9 513.55 328.16C501.4 333.4 488.6 336.16 475.48 337.5C475.01 337.55 474.53 337.51 473.8 337.51V335.02C473.8 313.99 473.75 292.95 473.86 271.92C473.87 269.43 473.33 267.78 470.96 266.88C470.46 266.69 470.03 266.29 469.44 265.89C469.89 265.61 470.21 265.36 470.57 265.19C480.02 260.73 485.13 253.07 486.7 242.95C487.83 235.62 487.62 228.31 485.15 221.22C481.4 210.46 473.23 204.79 462.56 202.49C457.75 201.45 452.75 200.88 447.82 200.84C426.72 200.66 405.61 200.76 384.51 200.76C384.03 200.76 383.55 200.8 382.76 200.84V213.68C381.71 213.1 381.05 212.76 380.41 212.38C364.45 202.77 348.47 193.17 332.55 183.5C331.07 182.6 330.03 182.69 328.62 183.55C321.55 187.9 314.42 192.14 307.04 196.59V0.0999927ZM382.8 134.47C383.38 134.5 383.73 134.54 384.07 134.54C402.09 134.54 420.11 134.63 438.13 134.44C442.49 134.39 446.92 133.75 451.17 132.73C462.09 130.13 469.83 123.83 472.8 112.61C474.27 107.08 474.5 101.44 473.77 95.77C472.32 84.4 466.52 76.37 455.6 72.3C449.22 69.92 442.58 69.2 435.85 69.18C418.95 69.12 402.04 69.16 385.14 69.16H382.79C382.79 91.06 382.79 112.68 382.79 134.47H382.8Z" fill="white"/>
<path d="M162.9 181.73V216.41C163.83 215.89 164.47 215.57 165.09 215.2C178.67 207.03 192.25 198.88 205.79 190.64C207.23 189.77 208.23 189.76 209.67 190.63C228.83 202.25 248.04 213.78 267.2 225.39C268.64 226.26 269.68 226.3 271.14 225.41C290.36 213.77 309.64 202.21 328.86 190.56C330.18 189.76 331.06 189.75 332.38 190.55C353.76 203.49 375.16 216.39 396.6 229.23C397.85 229.98 398.28 230.76 398.27 232.18C398.21 240.15 398.24 248.11 398.24 256.08V258.24C397.01 257.52 396.06 256.99 395.13 256.42C374.38 243.92 353.62 231.44 332.91 218.89C331.29 217.91 330.13 217.78 328.44 218.82C317.26 225.68 305.99 232.42 294.76 239.19C294.12 239.57 293.51 239.99 292.58 240.58C293.46 241.13 294.08 241.53 294.71 241.91C310.79 251.6 326.87 261.3 342.98 270.94C344.36 271.76 344.86 272.64 344.86 274.24C344.8 296.32 344.82 318.41 344.82 340.49V342.76C364.82 346.45 384.48 350.08 404.27 353.73V220.53H426.02V223.12C426.02 267.92 426.03 312.71 425.97 357.51C425.97 359.53 426.5 360.46 428.51 360.93C432.08 361.77 435.59 362.91 439.37 363.99V361.43C439.37 336.06 439.35 310.69 439.41 285.32C439.41 283.64 439.02 282.45 437.42 281.89C432.82 280.28 431.66 277.06 432 272.36C432.45 266.03 432.11 259.65 432.11 253.29V250.77C433.14 251.33 433.81 251.67 434.45 252.06C444.85 258.32 455.24 264.63 465.68 270.83C467.19 271.72 467.76 272.66 467.76 274.44C467.7 306.8 467.73 339.15 467.67 371.51C467.67 373.45 468.19 374.45 470.05 375.2C486.7 381.92 502.92 389.54 518.51 398.47C519.17 398.85 519.82 399.24 520.42 399.87C439.84 368.98 356.08 355.7 270.18 355.73C184.32 355.76 100.59 369.04 19.9902 399.69C20.3202 399.47 20.6402 399.23 20.9902 399.04C28.2502 395.14 35.3902 391.01 42.8002 387.43C51.1102 383.41 59.6302 379.8 68.1402 376.2C70.1702 375.34 70.7102 374.28 70.7002 372.18C70.6302 339.68 70.6702 307.19 70.6102 274.69C70.6102 272.79 71.1702 271.72 72.8202 270.73C92.7702 258.8 112.66 246.77 132.59 234.82C134.01 233.97 134.58 233.06 134.57 231.36C134.5 215.71 134.53 200.05 134.53 184.4V181.72C143.97 181.72 153.29 181.72 162.9 181.72V181.73ZM316.34 340.35C316.4 339.6 316.47 339.05 316.47 338.51C316.48 320.63 316.45 302.74 316.52 284.86C316.53 283.31 315.82 282.65 314.67 281.96C279.57 260.84 244.49 239.71 209.42 218.54C208.17 217.78 207.3 217.78 206.05 218.54C192.27 226.9 178.46 235.22 164.63 243.49C163.32 244.27 162.88 245.14 162.88 246.65C162.92 279.76 162.91 312.88 162.91 346V348.47C213.84 339.01 264.81 336.52 316.34 340.35ZM99.0202 364.49C99.6502 364.38 99.9902 364.35 100.31 364.26C111.15 361.18 121.98 358.06 132.84 355.04C134.33 354.62 134.54 353.84 134.54 352.5C134.51 322.96 134.52 293.41 134.51 263.87C134.51 263.29 134.42 262.71 134.35 261.94C133.58 262.36 133.02 262.63 132.49 262.95C121.98 269.28 111.49 275.65 100.94 281.92C99.4902 282.78 98.9802 283.72 98.9802 285.4C99.0302 310.96 99.0202 336.53 99.0202 362.09V364.49Z" fill="white"/>
<path d="M0.01 0.110001H76.66V2.75C76.66 64.53 76.61 126.3 76.71 188.08C76.74 203.43 78.3 218.62 83.48 233.23C85.66 239.39 88.62 245.15 92.71 250.28C92.92 250.54 93.08 250.85 93.36 251.26C87.19 254.98 81.11 258.65 75.02 262.32C72.21 264.01 69.44 265.78 66.57 267.36C65.05 268.2 64.49 269.2 64.49 270.98C64.56 289.85 64.53 308.72 64.53 327.58V330.55C63.52 329.99 62.76 329.6 62.03 329.16C42.58 317.48 28.5 300.94 18.45 280.8C10.3 264.47 5.61 247.07 2.9 229.1C0.67 214.15 0 199.09 0 183.98C0.03 123.67 0.01 63.36 0.01 3.06V0.110001Z" fill="white"/>
<path d="M179.27 0.130005H254.63C255.52 5.58 254.75 205.55 253.8 210.12C248.38 206.85 243.01 203.62 237.64 200.39C228.25 194.74 218.85 189.11 209.5 183.4C208.18 182.59 207.25 182.61 205.94 183.4C197.73 188.43 189.46 193.37 181.2 198.34C180.61 198.69 180 199.02 179.27 199.44V0.130005Z" fill="white"/>
<path d="M1920 55.01H942.34V224.75H1920V55.01Z" fill="white"/>
<path d="M686.59 186.11C676.34 176.04 671.22 161.76 671.22 143.28V74.32H706.41V142.21C706.41 162.11 714.29 172.07 730.05 172.07C745.81 172.07 753.51 162.12 753.51 142.21V74.32H788.17V143.28C788.17 161.76 783.04 176.04 772.8 186.11C762.55 196.18 748.19 201.22 729.7 201.22C711.21 201.22 696.83 196.18 686.59 186.11Z" fill="white"/>
<path d="M876.84 154.12V198.73H841.65V153.59L794.2 74.32H831.34L860.84 123.73L890.34 74.32H924.46L876.84 154.12Z" fill="white"/>
<path d="M1097.4 145.5C1101.43 150.77 1103.44 157.14 1103.44 164.61C1103.44 175.51 1099.06 183.92 1090.29 189.85C1081.52 195.78 1068.84 198.74 1052.26 198.74H985.08V74.32H1048.71C1064.59 74.32 1076.67 77.25 1084.97 83.12C1093.26 88.98 1097.41 96.89 1097.41 106.85C1097.41 112.78 1095.96 118.08 1093.06 122.76C1090.15 127.44 1086.04 131.14 1080.71 133.87C1087.8 136.35 1093.37 140.23 1097.4 145.5ZM1019.91 99.74V123.73H1044.08C1055.93 123.73 1061.85 119.7 1061.85 111.64C1061.85 103.58 1055.93 99.73 1044.08 99.73H1019.91V99.74ZM1067.89 160.71C1067.89 152.3 1061.73 148.09 1049.41 148.09H1019.91V173.33H1049.41C1061.73 173.33 1067.89 169.12 1067.89 160.71Z" fill="#0D2668"/>
<path d="M1149.02 192.87C1138.54 187.3 1130.3 179.6 1124.32 169.77C1118.34 159.94 1115.35 148.86 1115.35 136.54C1115.35 124.22 1118.34 113.14 1124.32 103.31C1130.3 93.48 1138.54 85.78 1149.02 80.21C1159.51 74.64 1171.33 71.86 1184.48 71.86C1197.63 71.86 1209.45 74.65 1219.94 80.21C1230.43 85.78 1238.66 93.48 1244.64 103.31C1250.62 113.15 1253.61 124.22 1253.61 136.54C1253.61 148.86 1250.62 159.94 1244.64 169.77C1238.66 179.61 1230.42 187.31 1219.94 192.87C1209.45 198.44 1197.64 201.22 1184.48 201.22C1171.32 201.22 1159.51 198.44 1149.02 192.87ZM1201.54 167.63C1206.63 164.67 1210.66 160.49 1213.63 155.1C1216.59 149.71 1218.07 143.52 1218.07 136.53C1218.07 129.54 1216.59 123.35 1213.63 117.96C1210.67 112.57 1206.64 108.39 1201.54 105.43C1196.44 102.47 1190.76 100.99 1184.48 100.99C1178.2 100.99 1172.51 102.47 1167.42 105.43C1162.32 108.39 1158.3 112.57 1155.34 117.96C1152.38 123.35 1150.9 129.54 1150.9 136.53C1150.9 143.52 1152.38 149.71 1155.34 155.1C1158.3 160.49 1162.33 164.67 1167.42 167.63C1172.51 170.59 1178.2 172.07 1184.48 172.07C1190.76 172.07 1196.45 170.59 1201.54 167.63Z" fill="#0D2668"/>
<path d="M1376.24 170.83V198.73H1264.81V176.69L1327.55 102.22H1266.41V74.32H1373.58V96.36L1310.84 170.83H1376.24Z" fill="#0D2668"/>
<path d="M1417.92 192.87C1407.44 187.3 1399.2 179.6 1393.22 169.77C1387.24 159.94 1384.25 148.86 1384.25 136.54C1384.25 124.22 1387.24 113.14 1393.22 103.31C1399.2 93.48 1407.44 85.78 1417.92 80.21C1428.41 74.64 1440.23 71.86 1453.38 71.86C1466.53 71.86 1478.35 74.65 1488.84 80.21C1499.33 85.78 1507.56 93.48 1513.54 103.31C1519.52 113.15 1522.51 124.22 1522.51 136.54C1522.51 148.86 1519.52 159.94 1513.54 169.77C1507.56 179.61 1499.32 187.31 1488.84 192.87C1478.35 198.44 1466.54 201.22 1453.38 201.22C1440.22 201.22 1428.4 198.44 1417.92 192.87ZM1470.44 167.63C1475.53 164.67 1479.56 160.49 1482.53 155.1C1485.49 149.71 1486.97 143.52 1486.97 136.53C1486.97 129.54 1485.49 123.35 1482.53 117.96C1479.57 112.57 1475.54 108.39 1470.44 105.43C1465.34 102.47 1459.66 100.99 1453.38 100.99C1447.1 100.99 1441.41 102.47 1436.32 105.43C1431.22 108.39 1427.2 112.57 1424.24 117.96C1421.28 123.35 1419.8 129.54 1419.8 136.53C1419.8 143.52 1421.28 149.71 1424.24 155.1C1427.2 160.49 1431.23 164.67 1436.32 167.63C1441.41 170.59 1447.1 172.07 1453.38 172.07C1459.66 172.07 1465.34 170.59 1470.44 167.63Z" fill="#0D2668"/>
<path d="M1595.38 165.67H1576.19V198.73H1541V74.32H1597.87C1609.13 74.32 1618.9 76.19 1627.19 79.92C1635.48 83.65 1641.88 88.98 1646.38 95.92C1650.88 102.85 1653.13 111 1653.13 120.36C1653.13 129.72 1651.03 137.22 1646.82 143.91C1642.61 150.6 1636.6 155.85 1628.78 159.64L1655.62 198.74H1617.94L1595.38 165.67ZM1612.08 106.85C1608.41 103.65 1602.96 102.05 1595.73 102.05H1576.18V138.48H1595.73C1602.96 138.48 1608.41 136.91 1612.08 133.77C1615.75 130.63 1617.59 126.16 1617.59 120.35C1617.59 114.54 1615.75 110.04 1612.08 106.85Z" fill="#0D2668"/>
<path d="M1672.51 74.32H1707.7V198.73H1672.51V74.32Z" fill="#0D2668"/>
<path d="M1845.08 198.73L1844.72 132.79L1812.73 186.46H1797.09L1765.28 134.56V198.72H1732.76V74.32H1761.73L1805.45 146.12L1848.1 74.32H1877.07L1877.43 198.73H1845.08Z" fill="#0D2668"/>
<path d="M719.98 305.93C721.85 308.38 722.78 311.41 722.78 315.04C722.78 320.04 720.85 323.9 717.01 326.63C713.16 329.35 707.55 330.71 700.19 330.71H671.49V272.99H698.54C705.36 272.99 710.61 274.32 714.29 276.99C717.97 279.66 719.82 283.33 719.82 288C719.82 290.86 719.16 293.39 717.84 295.59C716.52 297.79 714.71 299.49 712.4 300.7C715.58 301.74 718.11 303.49 719.98 305.93ZM682.21 281.4V297.31H697.38C701.12 297.31 703.99 296.64 706 295.29C708.01 293.94 709.01 291.98 709.01 289.39C709.01 286.8 708.01 284.76 706 283.41C703.99 282.06 701.12 281.39 697.38 281.39H682.21V281.4ZM711.98 313.98C711.98 308.43 707.83 305.65 699.53 305.65H682.21V322.31H699.53C707.83 322.31 711.98 319.53 711.98 313.98Z" fill="white"/>
<path d="M734.24 272.99H744.96V330.71H734.24V272.99Z" fill="white"/>
<path d="M805.4 321.64V330.71H756.17V323.54L790.14 282.06H756.74V272.99H804.32V280.16L770.35 321.64H805.4Z" fill="white"/>
<path d="M886.46 305.93C888.33 308.38 889.26 311.41 889.26 315.04C889.26 320.04 887.34 323.9 883.49 326.63C879.64 329.35 874.03 330.71 866.67 330.71H837.97V272.99H865.02C871.84 272.99 877.09 274.32 880.77 276.99C884.45 279.66 886.3 283.33 886.3 288C886.3 290.86 885.64 293.39 884.32 295.59C883 297.79 881.19 299.49 878.88 300.7C882.06 301.74 884.59 303.49 886.46 305.93ZM848.69 281.4V297.31H863.86C867.6 297.31 870.47 296.64 872.48 295.29C874.49 293.94 875.49 291.98 875.49 289.39C875.49 286.8 874.49 284.76 872.48 283.41C870.47 282.06 867.6 281.39 863.86 281.39H848.69V281.4ZM878.46 313.98C878.46 308.43 874.31 305.65 866.01 305.65H848.69V322.31H866.01C874.31 322.31 878.46 319.53 878.46 313.98Z" fill="white"/>
<path d="M900.73 272.99H911.451V330.71H900.73V272.99Z" fill="white"/>
<path d="M927.03 272.99H937.75V321.64H967.93V330.71H927.03V272.99Z" fill="white"/>
<path d="M1014.27 317.35H985.41L979.72 330.71H968.67L994.65 272.99H1005.2L1031.26 330.71H1020.05L1014.27 317.35ZM1010.73 308.94L999.84 283.71L989.04 308.94H1010.73Z" fill="white"/>
<path d="M1089.89 272.99V330.71H1081.07L1049.24 291.62V330.71H1038.6V272.99H1047.42L1079.25 312.08V272.99H1089.89Z" fill="white"/>
<path d="M1133.14 329.64C1128.99 328.38 1125.7 326.7 1123.29 324.61L1127 316.28C1129.36 318.15 1132.26 319.67 1135.7 320.86C1139.14 322.04 1142.59 322.63 1146.05 322.63C1150.34 322.63 1153.54 321.94 1155.66 320.57C1157.78 319.2 1158.84 317.38 1158.84 315.13C1158.84 313.48 1158.25 312.12 1157.07 311.05C1155.89 309.98 1154.39 309.14 1152.58 308.54C1150.77 307.94 1148.29 307.25 1145.16 306.48C1140.76 305.44 1137.2 304.39 1134.48 303.35C1131.76 302.31 1129.42 300.67 1127.47 298.44C1125.52 296.21 1124.54 293.2 1124.54 289.41C1124.54 286.22 1125.41 283.32 1127.14 280.71C1128.87 278.1 1131.48 276.02 1134.97 274.48C1138.46 272.94 1142.73 272.17 1147.79 272.17C1151.31 272.17 1154.77 272.61 1158.18 273.49C1161.59 274.37 1164.53 275.63 1167 277.28L1163.62 285.61C1161.09 284.13 1158.45 283 1155.7 282.23C1152.95 281.46 1150.28 281.08 1147.7 281.08C1143.47 281.08 1140.32 281.8 1138.26 283.22C1136.2 284.65 1135.17 286.55 1135.17 288.91C1135.17 290.56 1135.76 291.91 1136.94 292.95C1138.12 293.99 1139.62 294.82 1141.43 295.42C1143.25 296.03 1145.72 296.71 1148.85 297.48C1153.14 298.47 1156.66 299.5 1159.41 300.57C1162.16 301.64 1164.51 303.28 1166.46 305.48C1168.41 307.68 1169.39 310.65 1169.39 314.39C1169.39 317.58 1168.52 320.47 1166.79 323.05C1165.06 325.63 1162.43 327.7 1158.91 329.23C1155.39 330.76 1151.1 331.54 1146.05 331.54C1141.59 331.54 1137.29 330.9 1133.14 329.64Z" fill="white"/>
<path d="M1191.07 327.7C1186.34 325.14 1182.63 321.6 1179.94 317.06C1177.25 312.52 1175.9 307.45 1175.9 301.85C1175.9 296.25 1177.25 291.17 1179.94 286.64C1182.63 282.1 1186.34 278.56 1191.07 276C1195.8 273.44 1201.1 272.17 1206.98 272.17C1212.86 272.17 1218.17 273.45 1222.89 276C1227.62 278.56 1231.33 282.09 1234.02 286.6C1236.71 291.11 1238.06 296.19 1238.06 301.86C1238.06 307.53 1236.71 312.61 1234.02 317.12C1231.33 321.63 1227.61 325.16 1222.89 327.72C1218.16 330.28 1212.86 331.56 1206.98 331.56C1201.1 331.54 1195.79 330.26 1191.07 327.7ZM1217.37 319.54C1220.45 317.81 1222.87 315.39 1224.63 312.28C1226.39 309.18 1227.27 305.7 1227.27 301.85C1227.27 298 1226.39 294.53 1224.63 291.42C1222.87 288.31 1220.45 285.9 1217.37 284.16C1214.29 282.43 1210.83 281.56 1206.98 281.56C1203.13 281.56 1199.67 282.43 1196.59 284.16C1193.51 285.89 1191.09 288.31 1189.33 291.42C1187.57 294.53 1186.69 298 1186.69 301.85C1186.69 305.7 1187.57 309.18 1189.33 312.28C1191.09 315.39 1193.51 317.81 1196.59 319.54C1199.67 321.27 1203.13 322.14 1206.98 322.14C1210.83 322.14 1214.29 321.27 1217.37 319.54Z" fill="white"/>
<path d="M1260.34 282.06H1241.21V272.99H1290.19V282.06H1271.06V330.71H1260.34V282.06Z" fill="white"/>
<path d="M1298.27 272.99H1308.99V330.71H1298.27V272.99Z" fill="white"/>
<path d="M1373.06 305.93C1374.93 308.38 1375.86 311.41 1375.86 315.04C1375.86 320.04 1373.93 323.9 1370.09 326.63C1366.24 329.35 1360.63 330.71 1353.27 330.71H1324.57V272.99H1351.62C1358.44 272.99 1363.69 274.32 1367.37 276.99C1371.05 279.66 1372.9 283.33 1372.9 288C1372.9 290.86 1372.24 293.39 1370.92 295.59C1369.6 297.79 1367.79 299.49 1365.48 300.7C1368.66 301.74 1371.19 303.49 1373.06 305.93ZM1335.29 281.4V297.31H1350.46C1354.2 297.31 1357.07 296.64 1359.08 295.29C1361.09 293.94 1362.09 291.98 1362.09 289.39C1362.09 286.8 1361.09 284.76 1359.08 283.41C1357.07 282.06 1354.2 281.39 1350.46 281.39H1335.29V281.4ZM1365.06 313.98C1365.06 308.43 1360.91 305.65 1352.61 305.65H1335.29V322.31H1352.61C1360.91 322.31 1365.06 319.53 1365.06 313.98Z" fill="white"/>
<path d="M1421.13 327.7C1416.4 325.14 1412.69 321.6 1410 317.06C1407.31 312.52 1405.96 307.45 1405.96 301.85C1405.96 296.25 1407.31 291.17 1410 286.64C1412.69 282.1 1416.4 278.56 1421.13 276C1425.86 273.44 1431.16 272.17 1437.04 272.17C1442.92 272.17 1448.23 273.45 1452.95 276C1457.68 278.56 1461.39 282.09 1464.08 286.6C1466.77 291.11 1468.12 296.19 1468.12 301.86C1468.12 307.53 1466.77 312.61 1464.08 317.12C1461.39 321.63 1457.67 325.16 1452.95 327.72C1448.22 330.28 1442.92 331.56 1437.04 331.56C1431.16 331.54 1425.86 330.26 1421.13 327.7ZM1447.44 319.54C1450.52 317.81 1452.94 315.39 1454.7 312.28C1456.46 309.18 1457.34 305.7 1457.34 301.85C1457.34 298 1456.46 294.53 1454.7 291.42C1452.94 288.31 1450.52 285.9 1447.44 284.16C1444.36 282.43 1440.9 281.56 1437.05 281.56C1433.2 281.56 1429.74 282.43 1426.66 284.16C1423.58 285.89 1421.16 288.31 1419.4 291.42C1417.64 294.53 1416.76 298 1416.76 301.85C1416.76 305.7 1417.64 309.18 1419.4 312.28C1421.16 315.39 1423.58 317.81 1426.66 319.54C1429.74 321.27 1433.2 322.14 1437.05 322.14C1440.9 322.14 1444.36 321.27 1447.44 319.54Z" fill="white"/>
<path d="M1479.51 272.99H1490.23V321.64H1520.41V330.71H1479.51V272.99Z" fill="white"/>
<path d="M1528.91 272.99H1539.63V330.71H1528.91V272.99Z" fill="white"/>
<path d="M1606.5 272.99V330.71H1597.68L1565.85 291.62V330.71H1555.21V272.99H1564.03L1595.86 312.08V272.99H1606.5Z" fill="white"/>
<path d="M1661.42 301.19H1671.56V324.2C1668.59 326.56 1665.13 328.38 1661.17 329.64C1657.21 330.9 1653.14 331.54 1648.97 331.54C1643.09 331.54 1637.78 330.26 1633.06 327.7C1628.33 325.14 1624.62 321.61 1621.93 317.1C1619.24 312.59 1617.89 307.51 1617.89 301.84C1617.89 296.17 1619.24 291.09 1621.93 286.58C1624.62 282.07 1628.35 278.54 1633.1 275.98C1637.85 273.42 1643.2 272.15 1649.14 272.15C1653.98 272.15 1658.38 272.95 1662.33 274.54C1666.29 276.14 1669.61 278.47 1672.31 281.55L1665.55 288.15C1661.15 283.75 1655.85 281.55 1649.63 281.55C1645.56 281.55 1641.95 282.4 1638.79 284.11C1635.63 285.81 1633.16 288.21 1631.37 291.28C1629.58 294.36 1628.69 297.88 1628.69 301.83C1628.69 305.78 1629.58 309.14 1631.37 312.22C1633.16 315.3 1635.63 317.72 1638.79 319.48C1641.95 321.24 1645.54 322.12 1649.55 322.12C1654.06 322.12 1658.01 321.13 1661.42 319.15V301.19Z" fill="white"/>
<path d="M1684.67 329.43C1683.41 328.19 1682.77 326.67 1682.77 324.85C1682.77 323.03 1683.4 321.52 1684.67 320.31C1685.93 319.1 1687.53 318.49 1689.45 318.49C1691.37 318.49 1692.87 319.1 1694.11 320.31C1695.35 321.52 1695.97 323.03 1695.97 324.85C1695.97 326.67 1695.35 328.19 1694.11 329.43C1692.87 330.67 1691.32 331.29 1689.45 331.29C1687.58 331.29 1685.94 330.67 1684.67 329.43ZM1683.36 272.99H1695.56L1693.5 311.58H1685.34L1683.36 272.99Z" fill="white"/>
</g>
<defs>
<clipPath id="clip0_620_2">
<rect width="1920" height="399.87" fill="white"/>
</clipPath>
</defs>
</svg>
